# xmcd
# Track frame offsets:
# 150
# 10715
# 21330
# 33150
# 45627
# 56112
# 68202
# 81247
# 93650
# 104757
# 119077
# 132540
# 142010
# 155405
# 168520
#
# Disc length: 2428 seconds
# Revision: 0
# Processed by: cddbd v1.4PL0 Copyright (c) Steve Scherf et al.
# Submitted via: VisiTrax 2.9.5.180 - For more info visit www.synapsa.com
#
DISCID=da097a0f
DTITLE=Boxcar Willie with the Skeletons - Rocky box
DYEAR=1993
DGENRE=
TTITLE0=Rockin' bones
TTITLE1=Sally let your bangs hang down
TTITLE2=Train of love
TTITLE3=Mabeline
TTITLE4=That's all right
TTITLE5=Sixteen chickens and a tambourine
TTITLE6=Mystery train
TTITLE7=Pipeliner blues
TTITLE8=No help wanted
TTITLE9=Hounted house
TTITLE10=Hank you're like your daddy
TTITLE11=Caribbean
TTITLE12=Boney Maroney
TTITLE13=Memphis
TTITLE14=Achy breaky heart
EXTD=
EXTT0=
EXTT1=
EXTT2=
EXTT3=
EXTT4=
EXTT5=
EXTT6=
EXTT7=
EXTT8=
EXTT9=
EXTT10=
EXTT11=
EXTT12=
EXTT13=
EXTT14=
PLAYORDER=
